<svg xmlns="http://www.w3.org/2000/svg" xmlns:xlink="http://www.w3.org/1999/xlink" width="921.271" height="415.247" viewBox="0 0 921.271 415.247"><defs><style>.a,.e,.j{fill:none;}.b{clip-path:url(#a);}.c{fill:#fff;}.d{fill:#999393;}.e{stroke:#888b8d;stroke-width:2.033px;}.f{fill:#dbdcdd;}.g{fill:#00c7b1;}.h{fill:#b7a196;}.i{fill:#e7e7e7;}.j{stroke:#fff;stroke-miterlimit:10;stroke-width:2px;}</style><clipPath id="a"><rect class="a" width="921.271" height="415.247"/></clipPath></defs><g class="b"><path class="c" d="M688.366,12.556a4.288,4.288,0,0,1-2.893,5.332c-.036.012-.074.023-.111.033L674.847,20.71a4.29,4.29,0,0,1-5.333-2.893c-.011-.036-.022-.073-.032-.111l-1.5-5.794a4.289,4.289,0,0,1,2.894-5.333l.107-.032,10.528-2.79a4.462,4.462,0,0,1,5.365,3Z" transform="translate(59.074 0.32)"/><path class="d" d="M673.9,12.733a1.461,1.461,0,0,1-1.716-.859l-.857-3.215a1.458,1.458,0,0,1,.857-1.717l1.716-.429a1.461,1.461,0,0,1,1.719.859l.857,3.219a1.457,1.457,0,0,1-.857,1.717Z" transform="translate(59.382 0.572)"/><path class="d" d="M679.421,11.156A1.461,1.461,0,0,1,677.7,10.3l-.857-3.215a1.454,1.454,0,0,1,.857-1.715l1.719-.43a1.461,1.461,0,0,1,1.716.859l.856,3.219a1.456,1.456,0,0,1-.856,1.717Z" transform="translate(59.87 0.433)"/><path class="d" d="M675.478,18.648a1.462,1.462,0,0,1-1.719-.859l-.857-3.215a1.457,1.457,0,0,1,.857-1.717l1.719-.429a1.46,1.46,0,0,1,1.716.859l.857,3.219a1.457,1.457,0,0,1-.857,1.717Z" transform="translate(59.521 1.095)"/><path class="d" d="M680.8,17.07a1.46,1.46,0,0,1-1.716-.859L678.229,13a1.457,1.457,0,0,1,.857-1.717l1.716-.429a1.464,1.464,0,0,1,1.719.859l.857,3.219a1.457,1.457,0,0,1-.857,1.717Z" transform="translate(59.992 0.956)"/><path class="c" d="M667.071,19.348a4.225,4.225,0,0,1-1.634,5.748l-.084.046L655.7,30.293a4.225,4.225,0,0,1-5.746-1.629c-.015-.029-.032-.059-.046-.087l-2.793-5.152a4.533,4.533,0,0,1,1.719-6.007l9.657-5.152a4.536,4.536,0,0,1,6.009,1.717Z" transform="translate(57.198 1.039)"/><path class="d" d="M652.905,22.819a1.3,1.3,0,0,1-1.8-.391,1.336,1.336,0,0,1-.126-.253l-1.714-3.005a1.308,1.308,0,0,1,.643-1.931l1.714-.859a1.307,1.307,0,0,1,1.806.389,1.4,1.4,0,0,1,.127.256l1.717,3a1.307,1.307,0,0,1-.392,1.8,1.268,1.268,0,0,1-.253.125Z" transform="translate(57.415 1.431)"/><path class="d" d="M658.031,20.059a1.307,1.307,0,0,1-1.8-.391,1.339,1.339,0,0,1-.126-.253l-1.714-3.005a1.306,1.306,0,0,1,.392-1.806,1.356,1.356,0,0,1,.251-.125l1.714-.856a1.307,1.307,0,0,1,1.806.392,1.39,1.39,0,0,1,.125.251l1.716,3A1.308,1.308,0,0,1,660,19.077a1.329,1.329,0,0,1-.253.125Z" transform="translate(57.869 1.187)"/><path class="d" d="M655.862,28.142a1.307,1.307,0,0,1-1.8-.391,1.332,1.332,0,0,1-.126-.253l-1.716-3.005a1.308,1.308,0,0,1,.393-1.806,1.322,1.322,0,0,1,.251-.125l1.713-.859a1.315,1.315,0,0,1,1.934.643l1.716,3.005a1.307,1.307,0,0,1-.392,1.8,1.29,1.29,0,0,1-.251.125Z" transform="translate(57.677 1.902)"/><path class="d" d="M660.791,25.382a1.306,1.306,0,0,1-1.8-.392,1.229,1.229,0,0,1-.125-.251l-1.715-3.006a1.307,1.307,0,0,1,.392-1.8,1.291,1.291,0,0,1,.251-.125l1.714-.859a1.309,1.309,0,0,1,1.807.389,1.466,1.466,0,0,1,.126.255l1.717,3a1.309,1.309,0,0,1-.391,1.806,1.4,1.4,0,0,1-.253.125Z" transform="translate(58.113 1.657)"/><path class="c" d="M647.484,31.416a4.409,4.409,0,0,1-.218,6.224l-7.937,7.516a4.409,4.409,0,0,1-6.224-.218l-4.077-4.293a4.407,4.407,0,0,1,.218-6.223l7.94-7.511a4.41,4.41,0,0,1,6.224.219Z" transform="translate(55.54 2.276)"/><path class="d" d="M634.828,37.973a1.36,1.36,0,0,1-1.912-.194c-.007-.009-.013-.015-.019-.024l-2.361-2.575a1.358,1.358,0,0,1,.193-1.911l.025-.02,1.5-1.288a1.358,1.358,0,0,1,1.911.193c.005.009.012.016.019.025l2.362,2.575a1.357,1.357,0,0,1-.194,1.911.2.2,0,0,1-.024.019Z" transform="translate(55.75 2.8)"/><path class="d" d="M638.967,34.013a1.355,1.355,0,0,1-1.907-.19.256.256,0,0,1-.022-.027l-2.363-2.361a1.356,1.356,0,0,1,.189-1.908l.028-.023,1.5-1.288a1.357,1.357,0,0,1,1.91.192l.021.026,2.361,2.576a1.357,1.357,0,0,1-.194,1.911l-.024.02Z" transform="translate(56.116 2.469)"/><path class="d" d="M638.967,42.509a1.355,1.355,0,0,1-1.907-.192l-.022-.026-2.363-2.575a1.357,1.357,0,0,1,.189-1.909l.028-.023,1.5-1.287a1.358,1.358,0,0,1,1.91.19l.021.027,2.361,2.575a1.358,1.358,0,0,1-.194,1.911.2.2,0,0,1-.024.019Z" transform="translate(56.116 3.201)"/><path class="d" d="M642.91,38.548a1.355,1.355,0,0,1-1.907-.19c-.008-.01-.015-.017-.022-.027l-2.363-2.361a1.355,1.355,0,0,1,.188-1.908.269.269,0,0,1,.029-.023l1.5-1.288a1.357,1.357,0,0,1,1.91.192l.02.026,2.361,2.575a1.357,1.357,0,0,1-.193,1.911l-.024.02Z" transform="translate(56.465 2.87)"/><path class="c" d="M630.138,46.439a4.679,4.679,0,0,1,1.5,6.008l-5.793,9.228a4.683,4.683,0,0,1-6.009,1.5L614.9,59.959a4.682,4.682,0,0,1-1.5-6.008l5.794-9.228a4.683,4.683,0,0,1,6.009-1.5Z" transform="translate(54.215 3.777)"/><path class="d" d="M619.925,55.659A1.4,1.4,0,0,1,618,56.09l0,0-3.006-1.932a1.354,1.354,0,0,1-.477-1.856c.015-.025.032-.05.048-.074l.859-1.5a1.355,1.355,0,0,1,1.857-.478c.026.015.051.032.076.048l3,1.932a1.394,1.394,0,0,1,.432,1.924l0,.005Z" transform="translate(54.343 4.428)"/><path class="d" d="M622.881,50.927a1.35,1.35,0,0,1-1.85.478c-.027-.015-.053-.032-.078-.049l-3.006-1.931a1.4,1.4,0,0,1-.429-1.931l.859-1.5a1.356,1.356,0,0,1,1.857-.477c.026.015.051.032.076.048l3,1.931a1.351,1.351,0,0,1,.48,1.85c-.016.027-.033.054-.051.081Z" transform="translate(54.606 4.01)"/><path class="d" d="M625.05,59.011a1.4,1.4,0,0,1-1.931.429l-3-1.931a1.353,1.353,0,0,1-.48-1.85c.016-.027.034-.054.051-.081l.857-1.5A1.356,1.356,0,0,1,622.4,53.6c.027.015.051.032.076.048l3,1.931a1.394,1.394,0,0,1,.43,1.925l0,.005Z" transform="translate(54.797 4.725)"/><path class="d" d="M628.005,54.081a1.353,1.353,0,0,1-1.855.477c-.026-.014-.051-.032-.076-.048l-3-1.931a1.4,1.4,0,0,1-.431-1.928l0,0,.857-1.5a1.4,1.4,0,0,1,1.933-.43l3,1.932a1.394,1.394,0,0,1,.431,1.925l0,.005Z" transform="translate(55.06 4.29)"/><path class="c" d="M616.265,66.295a4.3,4.3,0,0,1,1.947,5.761l-.016.033-4.721,9.871a4.3,4.3,0,0,1-5.761,1.947l-.033-.016-5.364-2.575a4.3,4.3,0,0,1-1.947-5.76l.017-.034,4.72-9.871A4.3,4.3,0,0,1,610.87,63.7l.032.016Z" transform="translate(53.069 5.596)"/><path class="d" d="M607.1,76.707a1.435,1.435,0,0,1-1.715.643l-3-1.5a1.437,1.437,0,0,1-.645-1.716l.859-1.716a1.439,1.439,0,0,1,1.716-.643l3.006,1.5a1.438,1.438,0,0,1,.641,1.716Z" transform="translate(53.223 6.342)"/><path class="d" d="M609.659,71.581a1.441,1.441,0,0,1-1.719.643l-3-1.5a1.435,1.435,0,0,1-.643-1.717l.857-1.716a1.438,1.438,0,0,1,1.717-.643l3.006,1.5a1.437,1.437,0,0,1,.641,1.716Z" transform="translate(53.449 5.889)"/><path class="d" d="M612.617,79.467a1.438,1.438,0,0,1-1.719.643l-3-1.5a1.435,1.435,0,0,1-.643-1.717l.857-1.717a1.441,1.441,0,0,1,1.716-.643l3.006,1.5a1.437,1.437,0,0,1,.641,1.717Z" transform="translate(53.711 6.586)"/><path class="d" d="M615.18,74.341a1.437,1.437,0,0,1-1.715.643l-3.005-1.5a1.436,1.436,0,0,1-.644-1.716l.857-1.717a1.441,1.441,0,0,1,1.719-.643l3,1.5a1.436,1.436,0,0,1,.641,1.717Z" transform="translate(53.938 6.133)"/><path class="c" d="M606.244,89.055a4.29,4.29,0,0,1,3.035,5.252c-.01.037-.021.076-.032.113l-3,10.516a4.292,4.292,0,0,1-5.254,3.036l-.113-.032-5.792-1.718a4.293,4.293,0,0,1-3.036-5.258l.031-.106,3.005-10.3a4.29,4.29,0,0,1,5.255-3.035l.109.03Z" transform="translate(52.36 7.729)"/><path class="d" d="M599.244,100.707a1.354,1.354,0,0,1-1.712.86h0l-3.219-.859A1.353,1.353,0,0,1,593.452,99v-.005l.427-1.717a1.357,1.357,0,0,1,1.718-.859h0l3.219.858a1.353,1.353,0,0,1,.858,1.712v0Z" transform="translate(52.491 8.523)"/><path class="d" d="M600.624,95.186a1.356,1.356,0,0,1-1.712.86h0l-3.219-.859a1.356,1.356,0,0,1-.859-1.714v0l.429-1.716a1.357,1.357,0,0,1,1.716-.859l3.219.859a1.356,1.356,0,0,1,.861,1.712v0Z" transform="translate(52.613 8.034)"/><path class="d" d="M604.963,102.481a1.356,1.356,0,0,1-1.714.859h0l-3.219-.859a1.356,1.356,0,0,1-.86-1.714v0l.428-1.717a1.354,1.354,0,0,1,1.714-.859h0l3.219.859a1.355,1.355,0,0,1,.86,1.714v0Z" transform="translate(52.997 8.68)"/><path class="d" d="M606.539,96.961a1.354,1.354,0,0,1-1.712.86h0l-3.219-.859a1.356,1.356,0,0,1-.859-1.714v0l.429-1.715a1.357,1.357,0,0,1,1.716-.859l3.219.859a1.355,1.355,0,0,1,.861,1.712v0Z" transform="translate(53.136 8.191)"/><path class="c" d="M691.052,12.556a4.287,4.287,0,0,0,2.89,5.332c.037.012.075.023.112.033l10.522,2.789a4.29,4.29,0,0,0,5.333-2.9c.011-.036.022-.072.032-.109l1.5-5.794a4.292,4.292,0,0,0-2.9-5.335l-.106-.03L697.921,3.758a4.461,4.461,0,0,0-5.365,3Z" transform="translate(61.115 0.32)"/><path class="d" d="M704.263,12.734a1.461,1.461,0,0,0,1.717-.859l.859-3.219a1.46,1.46,0,0,0-.859-1.717l-1.717-.429a1.46,1.46,0,0,0-1.716.859l-.859,3.219a1.46,1.46,0,0,0,.859,1.717Z" transform="translate(62.067 0.572)"/><path class="d" d="M698.939,11.157a1.46,1.46,0,0,0,1.716-.859l.859-3.219a1.458,1.458,0,0,0-.859-1.717l-1.716-.429a1.461,1.461,0,0,0-1.717.859l-.859,3.219a1.46,1.46,0,0,0,.859,1.717Z" transform="translate(61.596 0.432)"/><path class="d" d="M702.883,18.649a1.461,1.461,0,0,0,1.716-.859l.859-3.219a1.458,1.458,0,0,0-.859-1.717l-1.716-.429a1.46,1.46,0,0,0-1.716.859l-.859,3.219a1.46,1.46,0,0,0,.859,1.717Z" transform="translate(61.945 1.095)"/><path class="d" d="M697.362,17.071a1.46,1.46,0,0,0,1.717-.859l.859-3.219a1.46,1.46,0,0,0-.859-1.717l-1.717-.429a1.461,1.461,0,0,0-1.716.859l-.859,3.219a1.46,1.46,0,0,0,.859,1.717Z" transform="translate(61.457 0.955)"/><path class="c" d="M712.572,19.347A4.226,4.226,0,0,0,714.2,25.1c.027.016.057.032.084.046l9.657,5.152a4.225,4.225,0,0,0,5.748-1.633c.016-.028.032-.057.046-.084l2.79-5.152a4.531,4.531,0,0,0-1.715-6.007l-9.657-5.152a4.534,4.534,0,0,0-6.006,1.717Z" transform="translate(62.987 1.039)"/><path class="d" d="M725.157,22.819a1.306,1.306,0,0,0,1.806-.391,1.327,1.327,0,0,0,.125-.253l1.718-3a1.306,1.306,0,0,0-.393-1.8,1.257,1.257,0,0,0-.25-.126l-1.714-.857a1.309,1.309,0,0,0-1.807.389,1.364,1.364,0,0,0-.127.256l-1.717,3a1.308,1.308,0,0,0,.392,1.806,1.242,1.242,0,0,0,.253.125Z" transform="translate(63.921 1.431)"/><path class="d" d="M720.229,20.059a1.307,1.307,0,0,0,1.8-.391,1.339,1.339,0,0,0,.126-.253l1.718-3a1.3,1.3,0,0,0-.644-1.931l-1.713-.857a1.308,1.308,0,0,0-1.807.389,1.359,1.359,0,0,0-.127.255l-1.716,3a1.308,1.308,0,0,0,.392,1.806,1.292,1.292,0,0,0,.251.125Z" transform="translate(63.485 1.187)"/><path class="d" d="M722.4,28.142a1.307,1.307,0,0,0,1.8-.394,1.362,1.362,0,0,0,.124-.249l1.72-3a1.307,1.307,0,0,0-.394-1.8,1.273,1.273,0,0,0-.253-.126l-1.713-.859a1.309,1.309,0,0,0-1.807.392,1.47,1.47,0,0,0-.125.251l-1.719,3a1.3,1.3,0,0,0,.645,1.931Z" transform="translate(63.676 1.902)"/><path class="d" d="M717.468,25.382a1.308,1.308,0,0,0,1.8-.394,1.294,1.294,0,0,0,.123-.249l1.72-3.005a1.3,1.3,0,0,0-.645-1.93l-1.714-.857a1.307,1.307,0,0,0-1.806.392,1.351,1.351,0,0,0-.125.251l-1.719,3A1.308,1.308,0,0,0,715.5,24.4a1.344,1.344,0,0,0,.254.126Z" transform="translate(63.24 1.658)"/><path class="c" d="M732.143,31.416a4.409,4.409,0,0,0,.218,6.224l7.94,7.509a4.408,4.408,0,0,0,6.224-.217l4.077-4.292a4.411,4.411,0,0,0-.218-6.224l-7.94-7.511a4.413,4.413,0,0,0-6.226.219Z" transform="translate(64.661 2.276)"/><path class="d" d="M743.449,37.974a1.355,1.355,0,0,0,1.907-.19c.007-.01.014-.017.021-.027l2.363-2.575a1.359,1.359,0,0,0-.194-1.912.2.2,0,0,0-.024-.019l-1.5-1.288a1.355,1.355,0,0,0-1.907.189l-.021.028-2.362,2.576a1.359,1.359,0,0,0,.2,1.915.134.134,0,0,0,.02.015Z" transform="translate(65.587 2.8)"/><path class="d" d="M739.308,34.013a1.358,1.358,0,0,0,1.911-.194.137.137,0,0,0,.02-.024l2.361-2.361a1.358,1.358,0,0,0-.193-1.911l-.025-.02-1.5-1.288a1.357,1.357,0,0,0-1.911.194l-.02.024-2.359,2.576a1.357,1.357,0,0,0,.194,1.911l.024.02Z" transform="translate(65.22 2.469)"/><path class="d" d="M739.308,42.508a1.358,1.358,0,0,0,1.911-.194.193.193,0,0,0,.02-.024l2.361-2.575a1.358,1.358,0,0,0-.193-1.911l-.025-.021-1.5-1.287a1.358,1.358,0,0,0-1.911.193l-.02.025-2.359,2.576a1.357,1.357,0,0,0,.194,1.911.2.2,0,0,0,.024.019Z" transform="translate(65.22 3.201)"/><path class="d" d="M735.366,38.548a1.358,1.358,0,0,0,1.911-.194.193.193,0,0,0,.019-.024l2.361-2.361a1.357,1.357,0,0,0-.193-1.911l-.025-.02-1.5-1.288a1.357,1.357,0,0,0-1.911.194l-.019.024-2.359,2.576a1.357,1.357,0,0,0,.193,1.911l.024.02Z" transform="translate(64.872 2.87)"/><path class="c" d="M749.167,46.439a4.68,4.68,0,0,0-1.5,6.008l5.793,9.228a4.683,4.683,0,0,0,6.009,1.5l4.938-3.219a4.682,4.682,0,0,0,1.5-6.008l-5.792-9.228a4.681,4.681,0,0,0-6.011-1.5Z" transform="translate(66.092 3.777)"/><path class="d" d="M758.356,55.657a1.4,1.4,0,0,0,1.929.43h0l3-1.932a1.353,1.353,0,0,0,.478-1.854c-.015-.026-.033-.052-.049-.076l-.857-1.5a1.4,1.4,0,0,0-1.93-.431h0l-3,1.932a1.4,1.4,0,0,0-.43,1.929v0Z" transform="translate(66.989 4.43)"/><path class="d" d="M755.4,50.927a1.353,1.353,0,0,0,1.855.477.813.813,0,0,0,.076-.048l3-1.931a1.4,1.4,0,0,0,.431-1.929l0,0-.858-1.5a1.355,1.355,0,0,0-1.855-.478c-.027.015-.052.033-.077.049l-3,1.931a1.355,1.355,0,0,0-.478,1.855c.016.025.032.051.049.076Z" transform="translate(66.726 4.01)"/><path class="d" d="M753.229,59.01a1.351,1.351,0,0,0,1.851.478c.026-.015.052-.032.077-.049l3.006-1.931a1.355,1.355,0,0,0,.477-1.856c-.015-.025-.032-.051-.048-.075l-.859-1.5a1.4,1.4,0,0,0-1.933-.43h0l-3,1.931a1.4,1.4,0,0,0-.432,1.925l0,.005Z" transform="translate(66.536 4.726)"/><path class="d" d="M750.272,54.082a1.352,1.352,0,0,0,1.851.478c.026-.015.052-.032.077-.049l3.006-1.931a1.4,1.4,0,0,0,.429-1.931l-.859-1.5a1.356,1.356,0,0,0-1.857-.478l-.076.048-3,1.932a1.394,1.394,0,0,0-.432,1.924l0,.007Z" transform="translate(66.274 4.289)"/><path class="c" d="M763,66.295a4.3,4.3,0,0,0-1.948,5.76.369.369,0,0,1,.019.036l4.72,9.871a4.3,4.3,0,0,0,5.761,1.947l.033-.016,5.365-2.575a4.3,4.3,0,0,0,1.947-5.761l-.016-.033-4.721-9.871a4.3,4.3,0,0,0-5.762-1.947l-.032.016Z" transform="translate(67.283 5.596)"/><path class="d" d="M770.962,76.707a1.436,1.436,0,0,0,1.716.643l3-1.5a1.438,1.438,0,0,0,.645-1.716l-.859-1.716a1.438,1.438,0,0,0-1.717-.643l-3.006,1.5a1.439,1.439,0,0,0-.641,1.716Z" transform="translate(68.117 6.342)"/><path class="d" d="M768.6,71.581a1.438,1.438,0,0,0,1.716.643l3-1.5a1.436,1.436,0,0,0,.643-1.717L773.1,67.29a1.439,1.439,0,0,0-1.716-.643l-3.007,1.5a1.44,1.44,0,0,0-.642,1.716Z" transform="translate(67.907 5.889)"/><path class="d" d="M765.639,79.467a1.438,1.438,0,0,0,1.717.643l3-1.5A1.437,1.437,0,0,0,771,76.892l-.859-1.717a1.442,1.442,0,0,0-1.716-.643l-3.007,1.5a1.44,1.44,0,0,0-.642,1.717Z" transform="translate(67.646 6.586)"/><path class="d" d="M763.273,74.341a1.439,1.439,0,0,0,1.716.643l3.005-1.5a1.438,1.438,0,0,0,.643-1.716l-.859-1.717a1.438,1.438,0,0,0-1.716-.643l-3,1.5a1.437,1.437,0,0,0-.644,1.717Z" transform="translate(67.437 6.133)"/><path class="c" d="M773.117,89.072a4.289,4.289,0,0,0-3.036,5.252c.011.037.021.076.032.113l3,10.516a4.293,4.293,0,0,0,5.254,3.036l.112-.032,5.791-1.718a4.29,4.29,0,0,0,3.038-5.254c-.01-.037-.021-.074-.031-.11L784.273,90.36a4.288,4.288,0,0,0-5.252-3.036c-.037.009-.076.02-.113.032Z" transform="translate(68.109 7.712)"/><path class="d" d="M779.208,100.707a1.359,1.359,0,0,0,1.719.859l3.219-.859A1.354,1.354,0,0,0,785,99l0-.005-.428-1.717a1.356,1.356,0,0,0-1.713-.86l0,0-3.219.858a1.355,1.355,0,0,0-.859,1.712v0Z" transform="translate(68.885 8.523)"/><path class="d" d="M777.631,95.187a1.358,1.358,0,0,0,1.716.859l3.219-.859a1.356,1.356,0,0,0,.86-1.713v0L783,91.754a1.354,1.354,0,0,0-1.713-.86h0l-3.219.859a1.357,1.357,0,0,0-.86,1.714v0Z" transform="translate(68.745 8.034)"/><path class="d" d="M773.292,102.482a1.36,1.36,0,0,0,1.719.859l3.219-.859a1.355,1.355,0,0,0,.858-1.712v0l-.429-1.717a1.355,1.355,0,0,0-1.713-.86h0l-3.219.859a1.355,1.355,0,0,0-.859,1.712v0Z" transform="translate(68.362 8.68)"/><path class="d" d="M771.913,96.961a1.353,1.353,0,0,0,1.712.86h0l3.219-.859a1.353,1.353,0,0,0,.859-1.711l0-.005-.426-1.715a1.358,1.358,0,0,0-1.719-.859l-3.219.859a1.352,1.352,0,0,0-.859,1.711v0Z" transform="translate(68.239 8.191)"/><path class="e" d="M596.205,119.553S614.445,17.833,697.924,9.464c0,0,75.758,5.795,101.72,110.089" transform="translate(52.741 0.837)"/><path class="f" d="M58.48,115.669c3.863.218,7.728,1.073,11.589.643,1.073-.217,2.79-.429,3.219-1.717,11.159-45.28,29.4-91.2,74.68-91.2s64.379,46.354,75.539,91.848c0,0,23.177,4.292,22.313-9.228C242.391,47.641,202.046,0,147.968,0S50.115,47.426,50.115,106.016c0-.218-3.219,9.014,8.369,9.657" transform="translate(4.397)"/><path class="c" d="M58.48,115.669c3.863.218,7.728,1.073,11.589.643,1.073-.217,2.79-.429,3.219-1.717,11.159-45.28,29.4-91.2,74.68-91.2s64.379,46.354,75.539,91.848c0,0,23.177,4.292,22.313-9.228C242.391,47.641,202.046,0,147.968,0S50.115,47.426,50.115,106.016c0-.218-3.219,9.014,8.369,9.657" transform="translate(4.397)"/><path class="d" d="M188.006,88.441V73.2a15.238,15.238,0,1,0-30.477,0V88.441h4.506V73.2a10.516,10.516,0,0,1,21.03-.214V88.441Z" transform="translate(13.935 5.128)"/><path class="g" d="M130.49,72.093A10.649,10.649,0,0,1,141,62.865a10.469,10.469,0,0,1,10.516,9.228h4.505A14.99,14.99,0,0,0,141,58.359a15.142,15.142,0,0,0-15.021,13.734Z" transform="translate(11.145 5.162)"/><path class="g" d="M151.521,73.54A10.649,10.649,0,0,1,141,82.768,10.469,10.469,0,0,1,130.49,73.54h-4.506A14.988,14.988,0,0,0,141,87.273,15.141,15.141,0,0,0,156.026,73.54Z" transform="translate(11.145 6.505)"/><path class="d" d="M124.106,74.9c0-.43.218-.859.218-1.5a15.238,15.238,0,1,0-15.238,15.238,15.015,15.015,0,0,0,13.949-9.228h-5.152a10.781,10.781,0,0,1-8.8,4.72A10.469,10.469,0,0,1,98.57,74.9ZM109.085,62.882a10.624,10.624,0,0,1,10.086,7.509H99a10.624,10.624,0,0,1,10.086-7.509" transform="translate(8.302 5.145)"/><path class="g" d="M104.409,104.045l-.218-1.288h-.218a2.855,2.855,0,0,1-1.288,1.073,4.026,4.026,0,0,1-1.717.429,3.628,3.628,0,0,1-2.146-.642,2.625,2.625,0,0,1-.643-1.932c0-1.716,1.5-2.575,4.292-2.789h1.5v-.644a3.108,3.108,0,0,0-.429-1.5,1.812,1.812,0,0,0-1.5-.429,6.488,6.488,0,0,0-2.575.643l-.429-1.073a10.447,10.447,0,0,1,1.5-.643,4.188,4.188,0,0,1,1.5-.218,3.452,3.452,0,0,1,2.361.644,3.274,3.274,0,0,1,.859,2.145v6.008c0,.218-.859.218-.859.218m-3.219-.859a2.276,2.276,0,0,0,2.575-2.575v-.858h-1.5a5.731,5.731,0,0,0-2.361.428,1.671,1.671,0,0,0-.643,1.5,1.637,1.637,0,0,0,.429,1.073,5.431,5.431,0,0,0,1.5.429" transform="translate(8.684 8.405)"/><rect class="g" width="1.502" height="12.661" transform="translate(123.823 99.788)"/><path class="g" d="M124.012,93.129a.943.943,0,0,1,.218-.641.789.789,0,0,1,.643-.218c.218,0,.429.218.643.218a.785.785,0,0,1,.218.643.941.941,0,0,1-.218.643.79.79,0,0,1-.643.218c-.218,0-.429-.218-.643-.218a.787.787,0,0,1-.218-.643m1.5,11.159h-1.5V95.275h1.5Z" transform="translate(10.97 8.162)"/><path class="g" d="M141.776,95.226v.86l-1.716.218c.218.218.218.428.429.643a1.922,1.922,0,0,1,.218,1.073,3.807,3.807,0,0,1-.859,2.146,4.507,4.507,0,0,1-2.361.859.787.787,0,0,1-.643-.219c-.643.43-.859.643-.859,1.074,0,.218.218.428.429.643a1.612,1.612,0,0,0,1.073.218H139.2a3.2,3.2,0,0,1,2.146.643,2.416,2.416,0,0,1,.294,3.406,2.372,2.372,0,0,1-.512.456,6.629,6.629,0,0,1-3.434.859,4.12,4.12,0,0,1-2.575-.642,2.1,2.1,0,0,1-.859-1.932,3.1,3.1,0,0,1,.429-1.5,3.483,3.483,0,0,1,1.5-.859c-.218-.217-.429-.217-.643-.428a.787.787,0,0,1-.218-.643c0-.43.218-.644.218-.859a2.963,2.963,0,0,1,.859-.643,2.147,2.147,0,0,1-1.073-.859,3.112,3.112,0,0,1-.429-1.5,3.282,3.282,0,0,1,.859-2.146,4.51,4.51,0,0,1,2.361-.859,2.708,2.708,0,0,1,1.288.219Zm-7.082,10.3a1.182,1.182,0,0,0,.643,1.074,3.32,3.32,0,0,0,1.717.428,8.033,8.033,0,0,0,2.575-.428,1.621,1.621,0,0,0,.859-1.5,1.64,1.64,0,0,0-.429-1.074c-.218-.218-.859-.218-1.717-.218h-1.716a3.109,3.109,0,0,0-1.5.43,1.574,1.574,0,0,0-.429,1.287m.643-7.509a1.952,1.952,0,0,0,.643,1.5,1.811,1.811,0,0,0,1.5.428,1.931,1.931,0,1,0,0-3.862,3.107,3.107,0,0,0-1.5.428c-.643.43-.643.859-.643,1.5" transform="translate(11.876 8.423)"/><path class="g" d="M155.275,104.081V98.5a4.026,4.026,0,0,0-.429-1.716,1.947,1.947,0,0,0-1.5-.643,3.2,3.2,0,0,0-2.146.643,3.456,3.456,0,0,0-.643,2.361v4.721h-1.5v-8.8h1.073l.218,1.073h.218a2.583,2.583,0,0,1,1.073-1.073,4.049,4.049,0,0,1,1.71-.429,2.676,2.676,0,0,1,2.361.859,2.932,2.932,0,0,1,.859,2.361v5.794Z" transform="translate(13.185 8.369)"/><path class="g" d="M168.721,104.258a5.275,5.275,0,0,1-3.219-1.073c-.859-.643-1.073-1.93-1.073-3.433a5.462,5.462,0,0,1,1.073-3.435,3.46,3.46,0,0,1,2.79-1.287,3.554,3.554,0,0,1,2.575,1.073,4.2,4.2,0,0,1,.859,3v.859H165.5a2.673,2.673,0,0,0,.859,2.361,2.258,2.258,0,0,0,2.146.859,5.94,5.94,0,0,0,2.79-.643v1.073a3.1,3.1,0,0,1-1.5.429,4.352,4.352,0,0,1-1.073.218m-.218-8.155a2.434,2.434,0,0,0-1.717.643,2.623,2.623,0,0,0-.643,1.931h4.721a2.627,2.627,0,0,0-.643-1.931c-.643-.217-1.073-.643-1.717-.643" transform="translate(14.545 8.406)"/><path class="g" d="M184.1,95.031a1.942,1.942,0,0,1,1.073.218l-.218,1.289a1.614,1.614,0,0,0-.859-.218,3.85,3.85,0,0,0-1.931.859,3.812,3.812,0,0,0-.859,2.145v4.721h-1.5V95.031h1.073l.218,1.717h.218c.429-.643.643-1.072,1.073-1.287a4.043,4.043,0,0,1,1.717-.43" transform="translate(15.906 8.406)"/><path class="h" d="M690.787,141.362a23.537,23.537,0,1,0,.134,0h-.134" transform="translate(59.019 12.505)"/><path class="i" d="M704.241,157.076,687.5,173.815a5.617,5.617,0,0,1-1.717,1.288,10.992,10.992,0,0,1-1.714-1.288l-8.372-8.37a1.962,1.962,0,0,1,0-2.575l1.074-1.072a1.957,1.957,0,0,1,2.575,0l4.936,4.935a1.957,1.957,0,0,0,2.575,0l13.31-13.3a1.962,1.962,0,0,1,2.575,0l1.072,1.074a1.459,1.459,0,0,1,.43,2.574" transform="translate(59.73 13.53)"/><path class="h" d="M141.7,141.362a23.538,23.538,0,1,0,.135,0H141.7" transform="translate(10.447 12.505)"/><path class="i" d="M157.009,156.352l-18.67,18.668a6.4,6.4,0,0,1-1.931,1.5,6.422,6.422,0,0,1-1.931-1.5l-9.229-9.226a2.077,2.077,0,0,1-.071-2.934l.071-.071,1.288-1.288a2.076,2.076,0,0,1,2.933-.071c.024.023.048.047.071.071l5.366,5.369a2.073,2.073,0,0,0,2.933.071c.024-.022.048-.046.071-.071l14.8-14.8a2.076,2.076,0,0,1,2.933-.071c.024.024.048.047.071.071L157,153.356a2.574,2.574,0,0,1,0,3.005" transform="translate(11.023 13.395)"/><path class="d" d="M690.787,207.016a23.536,23.536,0,1,0,.137,0h-.137" transform="translate(59.019 18.313)"/><path class="i" d="M700.729,236.074a1.6,1.6,0,0,1,0,1.929l-2.363,2.363a1.6,1.6,0,0,1-1.929,0l-6.655-6.655-6.651,6.655a1.6,1.6,0,0,1-1.933,0L678.84,238a1.6,1.6,0,0,1,0-1.929l6.65-6.654-6.65-6.652a1.6,1.6,0,0,1,0-1.933l2.359-2.358a1.6,1.6,0,0,1,1.933,0l6.651,6.649,6.655-6.649a1.6,1.6,0,0,1,1.929,0l2.363,2.358a1.61,1.61,0,0,1,0,1.933l-6.655,6.653Z" transform="translate(60.022 19.298)"/><path class="h" d="M141.7,207.016a23.537,23.537,0,1,0,.137,0H141.7" transform="translate(10.447 18.313)"/><path class="i" d="M155.157,222.73l-16.739,16.739a5.629,5.629,0,0,1-1.717,1.288,10.693,10.693,0,0,1-1.717-1.288l-8.369-8.369a1.96,1.96,0,0,1,0-2.575l1.073-1.073a1.96,1.96,0,0,1,2.575,0l4.936,4.936a1.96,1.96,0,0,0,2.575,0l13.305-13.305a1.96,1.96,0,0,1,2.575,0l1.073,1.073a1.466,1.466,0,0,1,.429,2.575" transform="translate(11.158 19.337)"/><path class="d" d="M690.787,272.472a23.536,23.536,0,1,0,.137,0h-.137" transform="translate(59.019 24.103)"/><path class="i" d="M700.729,301.727a1.607,1.607,0,0,1,0,1.931l-2.363,2.361a1.6,1.6,0,0,1-1.929,0l-6.655-6.653-6.651,6.653a1.6,1.6,0,0,1-1.933,0l-2.359-2.361a1.6,1.6,0,0,1,0-1.931l6.65-6.652-6.65-6.654a1.6,1.6,0,0,1,0-1.931l2.359-2.361a1.607,1.607,0,0,1,1.933,0l6.651,6.653,6.655-6.653a1.6,1.6,0,0,1,1.929,0l2.363,2.361a1.607,1.607,0,0,1,0,1.931l-6.655,6.654Z" transform="translate(60.022 25.106)"/><path class="h" d="M141.7,272.472a23.537,23.537,0,1,0,.137,0H141.7" transform="translate(10.447 24.103)"/><path class="i" d="M155.157,288.383l-16.739,16.739a5.612,5.612,0,0,1-1.717,1.288,10.6,10.6,0,0,1-1.717-1.288l-8.369-8.37a1.958,1.958,0,0,1,0-2.574l1.073-1.073a1.96,1.96,0,0,1,2.575,0l4.936,4.936a1.96,1.96,0,0,0,2.575,0l13.305-13.306a1.962,1.962,0,0,1,2.575,0l1.073,1.074a1.458,1.458,0,0,1,.429,2.575" transform="translate(11.158 25.145)"/><path class="d" d="M690.787,338.125a23.536,23.536,0,1,0,.137,0h-.137" transform="translate(59.019 29.911)"/><path class="i" d="M700.729,367.381a1.605,1.605,0,0,1,0,1.93l-2.363,2.362a1.6,1.6,0,0,1-1.929,0l-6.655-6.653-6.651,6.653a1.6,1.6,0,0,1-1.933,0l-2.359-2.362a1.6,1.6,0,0,1,0-1.93l6.65-6.653-6.65-6.653a1.6,1.6,0,0,1,0-1.931l2.359-2.361a1.61,1.61,0,0,1,1.933,0l6.651,6.653,6.655-6.653a1.6,1.6,0,0,1,1.929,0l2.363,2.361a1.607,1.607,0,0,1,0,1.931l-6.655,6.653Z" transform="translate(60.022 30.914)"/><path class="h" d="M141.7,338.125a23.537,23.537,0,1,0,.137,0H141.7" transform="translate(10.447 29.911)"/><path class="i" d="M155.157,353.839l-16.739,16.739a5.648,5.648,0,0,1-1.717,1.288,10.823,10.823,0,0,1-1.717-1.288l-8.369-8.37a1.958,1.958,0,0,1,0-2.574l1.073-1.073a1.96,1.96,0,0,1,2.575,0L135.2,363.5a1.96,1.96,0,0,0,2.575,0l13.305-13.306a1.962,1.962,0,0,1,2.575,0l1.073,1.074a1.458,1.458,0,0,1,.429,2.575" transform="translate(11.158 30.935)"/><line class="j" x2="921.271" transform="translate(0 213.096)"/><line class="j" x2="921.271" transform="translate(0 284.557)"/><line class="j" x2="921.271" transform="translate(0 356.018)"/></g></svg>