<svg xmlns="http://www.w3.org/2000/svg" xmlns:xlink="http://www.w3.org/1999/xlink" width="159.102" height="84.761" viewBox="0 0 159.102 84.761"><defs><style>.a{fill:none;}.b{clip-path:url(#a);}.c{fill:#fff;}</style><clipPath id="a"><rect class="a" width="159.102" height="84.761"/></clipPath></defs><g transform="translate(0)"><g class="b" transform="translate(0 0)"><path class="c" d="M176.407,48.278V24.139a24.138,24.138,0,1,0-48.277,0V48.278h7.241V24.139a16.9,16.9,0,1,1,33.794,0V48.278Z" transform="translate(-17.305 0)"/><path class="c" d="M71.475,21.9a16.893,16.893,0,0,1,33.49,0h7.287a24.136,24.136,0,0,0-48.064,0Z" transform="translate(-8.669 0)"/><path class="c" d="M104.965,30.5a16.893,16.893,0,0,1-33.49,0H64.188a24.136,24.136,0,0,0,48.064,0Z" transform="translate(-8.669 -4.119)"/><path class="c" d="M48.169,26.377c.068-.738.107-1.483.107-2.238a24.123,24.123,0,1,0-1.934,9.48H38.127A16.9,16.9,0,0,1,7.394,26.376H48.169ZM24.139,7.241A16.906,16.906,0,0,1,40.282,19.134H8A16.9,16.9,0,0,1,24.139,7.241" transform="translate(0 0)"/><path class="c" d="M18.332,88.363,17.9,86.339h-.1a5.99,5.99,0,0,1-2.12,1.81,6.481,6.481,0,0,1-2.64.473,4.746,4.746,0,0,1-3.314-1.09,3.973,3.973,0,0,1-1.2-3.1q0-4.3,6.887-4.513l2.412-.078v-.882a3.6,3.6,0,0,0-.72-2.47,2.96,2.96,0,0,0-2.3-.8,9.377,9.377,0,0,0-4.02,1.09l-.662-1.647a10.1,10.1,0,0,1,2.3-.9,9.965,9.965,0,0,1,2.509-.324A5.418,5.418,0,0,1,18.7,75.043a4.712,4.712,0,0,1,1.225,3.619v9.7Zm-4.864-1.518a4.368,4.368,0,0,0,3.158-1.1,4.078,4.078,0,0,0,1.149-3.087V81.372l-2.154.091a7.852,7.852,0,0,0-3.7.8,2.407,2.407,0,0,0-1.135,2.2,2.219,2.219,0,0,0,.707,1.777,2.934,2.934,0,0,0,1.978.609" transform="translate(-1.152 -9.983)"/><rect class="c" width="2.153" height="20.181" transform="translate(34.394 58.199)"/><path class="c" d="M60.251,69.507a1.431,1.431,0,0,1,.363-1.083,1.344,1.344,0,0,1,1.8.007,1.4,1.4,0,0,1,.376,1.076,1.429,1.429,0,0,1-.376,1.084,1.255,1.255,0,0,1-.894.356,1.242,1.242,0,0,1-.908-.356,1.459,1.459,0,0,1-.363-1.084m2.334,18.068H60.433V73.36h2.153Z" transform="translate(-8.137 -9.195)"/><path class="c" d="M92.514,74.143V75.5l-2.633.311a4.623,4.623,0,0,1,.934,2.84,4.2,4.2,0,0,1-1.427,3.333,5.759,5.759,0,0,1-3.917,1.246,6.521,6.521,0,0,1-1.193-.1A2.12,2.12,0,0,0,82.9,84.96a.929.929,0,0,0,.479.862,3.508,3.508,0,0,0,1.648.279h2.516a5.634,5.634,0,0,1,3.547.973A3.38,3.38,0,0,1,92.332,89.9a4.036,4.036,0,0,1-1.894,3.6,10.137,10.137,0,0,1-5.524,1.238,7.545,7.545,0,0,1-4.3-1.037A3.35,3.35,0,0,1,79.1,90.77a3.287,3.287,0,0,1,.83-2.243,4.226,4.226,0,0,1,2.334-1.285,2.242,2.242,0,0,1-.914-.765,2.018,2.018,0,0,1-.369-1.206A2.288,2.288,0,0,1,81.4,83.91a4.388,4.388,0,0,1,1.31-1.129,3.833,3.833,0,0,1-1.8-1.543,4.534,4.534,0,0,1-.694-2.49,4.6,4.6,0,0,1,1.4-3.6,5.718,5.718,0,0,1,3.969-1.265,7.217,7.217,0,0,1,2.01.259Zm-11.336,16.6a1.93,1.93,0,0,0,.973,1.752,5.368,5.368,0,0,0,2.789.6,7.791,7.791,0,0,0,4.014-.81,2.482,2.482,0,0,0,1.3-2.2,1.739,1.739,0,0,0-.713-1.6,5.539,5.539,0,0,0-2.685-.448H84.278a3.4,3.4,0,0,0-2.283.7,2.5,2.5,0,0,0-.817,2.01M82.346,78.7a2.889,2.889,0,0,0,.843,2.257,3.362,3.362,0,0,0,2.347.765q3.153,0,3.152-3.061,0-3.2-3.19-3.2a3.16,3.16,0,0,0-2.335.817,3.291,3.291,0,0,0-.817,2.425" transform="translate(-10.684 -9.979)"/><path class="c" d="M120.637,88.359v-9.2a3.712,3.712,0,0,0-.791-2.594,3.22,3.22,0,0,0-2.477-.856,4.089,4.089,0,0,0-3.269,1.206,6.1,6.1,0,0,0-1.037,3.982v7.458H110.91V74.144h1.751l.35,1.945h.1a4.393,4.393,0,0,1,1.854-1.627,6.027,6.027,0,0,1,2.659-.577,5.4,5.4,0,0,1,3.865,1.238,5.275,5.275,0,0,1,1.3,3.962v9.274Z" transform="translate(-14.979 -9.979)"/><path class="c" d="M148.569,88.617A6.525,6.525,0,0,1,143.6,86.7a7.431,7.431,0,0,1-1.823-5.33,8.245,8.245,0,0,1,1.693-5.46,5.624,5.624,0,0,1,4.546-2.023,5.36,5.36,0,0,1,4.229,1.758,6.736,6.736,0,0,1,1.556,4.637V81.64H144a5.639,5.639,0,0,0,1.265,3.8,4.372,4.372,0,0,0,3.378,1.3,11.452,11.452,0,0,0,4.54-.96V87.7a11.387,11.387,0,0,1-2.16.707,12.143,12.143,0,0,1-2.458.214m-.584-12.931a3.516,3.516,0,0,0-2.73,1.116,5.138,5.138,0,0,0-1.2,3.086h7.432a4.733,4.733,0,0,0-.908-3.119,3.2,3.2,0,0,0-2.594-1.083" transform="translate(-19.148 -9.979)"/><path class="c" d="M179.33,73.884a8.432,8.432,0,0,1,1.7.156l-.3,2a7.337,7.337,0,0,0-1.557-.195,3.789,3.789,0,0,0-2.95,1.4A5.108,5.108,0,0,0,175,80.732v7.626h-2.153V74.143h1.777l.246,2.633h.1a6.244,6.244,0,0,1,1.906-2.14,4.292,4.292,0,0,1,2.451-.752" transform="translate(-23.344 -9.979)"/></g></g></svg>